<svg width="377" height="444" version="1.1" id="Layer_1" xmlns="http://www.w3.org/2000/svg" xmlns:xlink="http://www.w3.org/1999/xlink" x="0px" y="0px"
	 viewBox="0 0 377 444" style="enable-background:new 0 0 377 444;" xml:space="preserve">
<style type="text/css">
	.st0{fill:#b3a075;}
	.st1{fill:#b3a075;}
	.st2{fill:#b3a075;}
	.st3{fill:#b3a075;}
	.st4{fill:#b3a075;}
	.st5{fill:#b3a075;}
	.st6{fill:#b3a075;}
</style>
<g>
	<linearGradient id="SVGID_1_" gradientUnits="userSpaceOnUse" x1="28.2145" y1="-3.8966" x2="286.6863" y2="455.6088">
		<stop  offset="0" style="stop-color:#b3a075"/>
		<stop  offset="0.1329" style="stop-color:#b3a075"/>
		<stop  offset="0.1724" style="stop-color:#b3a075"/>
		<stop  offset="0.2287" style="stop-color:#b3a075"/>
		<stop  offset="0.2948" style="stop-color:#b3a075"/>
		<stop  offset="0.3061" style="stop-color:#b3a075"/>
		<stop  offset="0.413" style="stop-color:#b3a075"/>
		<stop  offset="0.5168" style="stop-color:#b3a075"/>
		<stop  offset="0.8009" style="stop-color:#b3a075"/>
		<stop  offset="1" style="stop-color:#b3a075"/>
	</linearGradient>
	<path class="st0" d="M146.7,443.7c-28.6,0-54.2-7.6-76.1-22.5c-22-14.9-39.4-38.2-51.8-69.4C6.3,320.8,0,280.4,0,231.6
		C0,200,3.3,170,9.9,142.5c6.6-27.6,16.8-52.4,30.2-73.7c13.5-21.3,31.1-38.2,52.4-50.3c21.3-12.1,47.2-18.2,76.9-18.2
		c22.9,0,42.1,3.2,57,9.4c15,6.3,26.4,14.4,33.9,24.2c7.6,9.8,11.4,20.4,11.4,31.5c0,12.8-5,23.7-14.9,32.3
		c-9.8,8.6-26.1,13-48.4,13H207v-1.5c0-23.8-1.5-43.3-4.5-57.9c-2.9-14.4-7.9-25.1-14.9-31.6c-6.9-6.5-16-9.8-27.2-9.8
		c-16.3,0-30.4,6.4-42.1,19c-11.8,12.8-21.1,33.6-27.8,62C84,118.8,80,155.6,78.7,200.6c5.5-4.7,11.7-9.1,18.7-12.9
		c8.1-4.4,17.5-8,28-10.6c10.5-2.6,22.7-3.9,36.4-3.9c36.6,0,66.4,11.1,88.4,33.1c22,22,33.1,52.9,33.1,92
		c0,28.1-5.3,53.4-15.7,75.3c-10.5,22-26,39.3-46.2,51.6C201.1,437.5,176,443.7,146.7,443.7z M169.5,3.3c-29.2,0-54.6,6-75.5,17.8
		C73.2,32.9,55.9,49.5,42.7,70.4c-13.2,21-23.3,45.4-29.8,72.7C6.3,170.5,3,200.3,3,231.6c0,48.4,6.2,88.5,18.5,119.1
		c12.2,30.6,29.3,53.5,50.7,68c21.4,14.6,46.5,21.9,74.5,21.9c28.8,0,53.4-6.1,73-18.1c19.6-12,34.8-28.9,45-50.4
		c10.3-21.5,15.5-46.4,15.5-74.1c0-38.2-10.9-68.4-32.3-89.8c-21.4-21.4-50.4-32.3-86.2-32.3c-13.4,0-25.4,1.3-35.6,3.9
		c-10.2,2.6-19.4,6-27.2,10.4c-7.9,4.3-14.8,9.3-20.7,14.8l-2.6,2.4l0.1-3.6c1.2-46.7,5.2-85,12-113.7c6.8-28.9,16.4-50.2,28.6-63.4
		c12.2-13.3,27.1-20,44.3-20c11.9,0,21.8,3.6,29.2,10.6c7.4,7,12.7,18.2,15.7,33.2c2.9,14.5,4.5,33.7,4.5,57
		c20.8-0.2,35.9-4.3,44.9-12.2c9.2-8.1,13.9-18.2,13.9-30.1c0-10.4-3.6-20.4-10.8-29.7c-7.2-9.3-18.2-17.2-32.7-23.2
		C210.8,6.4,192,3.3,169.5,3.3z M148.5,437.7c-13.5,0-25-4.1-34.3-12.1c-9.2-8-16.7-21-22.3-38.8c-5.6-17.6-9.7-40.9-12.1-69.3
		C77.4,289.1,76,254,75.6,213l0-0.6L76,212c4.9-5.3,10.9-10.3,18-14.9c7.1-4.6,14.8-8.5,23.1-11.6c8.3-3,17.3-4.6,26.6-4.6
		c14.7,0,26.8,4.3,35.8,12.7c9,8.4,15.7,21.8,19.9,39.8c4.2,17.8,6.3,41.7,6.3,70.8c0,32.3-1.8,58.5-5.4,77.7
		c-3.6,19.4-9.7,33.7-18.1,42.5C173.8,433.2,162.5,437.7,148.5,437.7z M78.6,213.6c0.4,40.6,1.8,75.5,4.2,103.7
		c2.4,28.2,6.4,51.3,11.9,68.7c5.5,17.2,12.7,29.8,21.5,37.4c8.7,7.5,19.6,11.3,32.3,11.3c13.1,0,23.7-4.2,31.6-12.4
		c8-8.3,13.8-22.1,17.3-40.9c3.6-19,5.4-45,5.4-77.1c0-28.9-2.1-52.5-6.3-70.2c-4.1-17.4-10.5-30.3-19.1-38.2
		c-8.5-7.9-19.8-11.9-33.8-11.9c-9,0-17.6,1.5-25.6,4.4c-8,2.9-15.6,6.7-22.5,11.2C89,203.9,83.2,208.6,78.6,213.6z"/>
</g>
<g>
	
		<linearGradient id="SVGID_00000080197510116892355090000000749522245071488420_" gradientUnits="userSpaceOnUse" x1="191.4777" y1="146.822" x2="384.0664" y2="146.822">
		<stop  offset="0" style="stop-color:#b3a075"/>
		<stop  offset="0.5" style="stop-color:#b3a075"/>
		<stop  offset="0.6477" style="stop-color:#b3a075"/>
		<stop  offset="0.8576" style="stop-color:#b3a075"/>
		<stop  offset="1" style="stop-color:#b3a075"/>
	</linearGradient>
	<path style="fill:url(#SVGID_00000080197510116892355090000000749522245071488420_);" d="M215.7,162.4c-2.2,0-4-0.3-5.6-0.9
		c-1.5-0.6-2.7-1.6-3.6-2.9c-0.8-1.3-1.2-3.1-1.2-5.3v-16.8c0-0.6-0.1-1.2-0.3-1.5c-0.2-0.4-0.6-0.7-1-0.8c-0.4-0.2-1-0.3-1.6-0.3
		h-0.9v-0.4h12.2v0.4H213c-0.6,0-1.1,0.1-1.6,0.3c-0.4,0.2-0.8,0.5-1,0.9s-0.3,0.9-0.3,1.6v17.6c0,2,0.3,3.5,0.8,4.6
		c0.5,1.1,1.3,1.9,2.3,2.3c1,0.4,2.1,0.7,3.4,0.7c1.8,0,3.3-0.3,4.6-1c1.3-0.6,2.3-1.6,3-2.8c0.7-1.2,1-2.6,1-4.3v-17.3
		c0-0.6-0.1-1.2-0.3-1.5c-0.2-0.4-0.6-0.7-1-0.8c-0.4-0.2-1-0.3-1.6-0.3h-1.4v-0.4h4.7v7c1.6-0.3,2.7-0.7,3.5-1.2
		c0.8-0.6,1.1-1.3,1.1-2.1c0-0.4-0.1-0.8-0.3-1c-0.2-0.2-0.4-0.4-0.7-0.6c-0.3-0.1-0.5-0.3-0.8-0.4c-0.3-0.1-0.5-0.3-0.7-0.6
		c-0.2-0.3-0.3-0.6-0.3-1.1c0-0.7,0.2-1.2,0.6-1.6c0.4-0.4,1-0.6,1.7-0.6c0.8,0,1.5,0.3,2,0.8c0.5,0.5,0.7,1.3,0.7,2.4
		c0,0.9-0.2,1.8-0.7,2.7c-0.4,0.9-1.2,1.7-2.2,2.3c-1,0.7-2.4,1.1-4.1,1.4v13c0,1.8-0.4,3.4-1.1,4.6c-0.7,1.3-1.9,2.3-3.3,2.9
		C219.7,162.1,217.9,162.4,215.7,162.4z"/>
	
		<linearGradient id="SVGID_00000072996971930320005790000013303580016341658756_" gradientUnits="userSpaceOnUse" x1="191.4777" y1="147.9419" x2="384.0664" y2="147.9419">
		<stop  offset="0" style="stop-color:#b3a075"/>
		<stop  offset="0.5" style="stop-color:#b3a075"/>
		<stop  offset="0.6477" style="stop-color:#b3a075"/>
		<stop  offset="0.8576" style="stop-color:#b3a075"/>
		<stop  offset="1" style="stop-color:#b3a075"/>
	</linearGradient>
	<path style="fill:url(#SVGID_00000072996971930320005790000013303580016341658756_);" d="M247.7,162.4c-2.2,0-4-0.3-5.6-0.9
		c-1.5-0.6-2.7-1.6-3.6-2.9c-0.8-1.3-1.2-3.1-1.2-5.3v-16.8c0-0.6-0.1-1.2-0.3-1.5c-0.2-0.4-0.6-0.7-1-0.8c-0.4-0.2-1-0.3-1.6-0.3
		h-0.9v-0.4h12.2v0.4h-0.8c-0.6,0-1.1,0.1-1.6,0.3c-0.4,0.2-0.8,0.5-1,0.9s-0.3,0.9-0.3,1.6v17.6c0,2,0.3,3.5,0.8,4.6
		c0.5,1.1,1.3,1.9,2.3,2.3c1,0.4,2.1,0.7,3.4,0.7c1.8,0,3.3-0.3,4.6-1c1.3-0.6,2.2-1.6,2.9-2.8c0.7-1.2,1-2.6,1-4.3v-17.3
		c0-0.6-0.1-1.2-0.3-1.5c-0.2-0.4-0.6-0.7-1-0.8c-0.5-0.2-1-0.3-1.6-0.3h-1v-0.4h8.3v0.4h-1c-0.6,0-1.1,0.1-1.6,0.3s-0.8,0.5-1,0.9
		c-0.2,0.4-0.3,1-0.3,1.6v17.2c0,1.8-0.4,3.4-1.1,4.6c-0.7,1.3-1.8,2.3-3.3,2.9C251.6,162.1,249.8,162.4,247.7,162.4z"/>
	
		<linearGradient id="SVGID_00000063631645802435708330000009482038391699472522_" gradientUnits="userSpaceOnUse" x1="191.4777" y1="147.7419" x2="384.0664" y2="147.7419">
		<stop  offset="0" style="stop-color:#b3a075"/>
		<stop  offset="0.5" style="stop-color:#b3a075"/>
		<stop  offset="0.6477" style="stop-color:#b3a075"/>
		<stop  offset="0.8576" style="stop-color:#b3a075"/>
		<stop  offset="1" style="stop-color:#b3a075"/>
	</linearGradient>
	<path style="fill:url(#SVGID_00000063631645802435708330000009482038391699472522_);" d="M272.3,162v-0.4h0.8
		c0.6,0,1.2-0.1,1.6-0.3c0.4-0.2,0.8-0.5,1-0.9c0.2-0.4,0.3-1,0.3-1.6v-11.6h-3.7v-0.4h3.7v-10.4c0-0.6-0.1-1.2-0.3-1.5
		c-0.2-0.4-0.6-0.7-1-0.8c-0.4-0.2-1-0.3-1.6-0.3h-0.8v-0.4h12.5c2.8,0,5.2,0.5,7.2,1.6s3.5,2.7,4.6,4.8c1.1,2.1,1.6,4.7,1.6,7.7
		c0,2.9-0.5,5.4-1.5,7.6c-1,2.2-2.5,3.8-4.5,5c-2,1.2-4.4,1.8-7.4,1.8H272.3z M283.9,161.6c2.2,0,3.9-0.5,5.3-1.4
		c1.4-1,2.4-2.5,3-4.5c0.6-2.1,0.9-4.8,0.9-8.1c0-3.2-0.3-5.8-0.9-7.9c-0.6-2-1.6-3.5-3-4.4c-1.3-0.9-3.1-1.4-5.3-1.4h-3.2v13h6.3
		v0.4h-6.3v14.4H283.9z"/>
	
		<linearGradient id="SVGID_00000008118319666144998230000017897954856367857059_" gradientUnits="userSpaceOnUse" x1="191.4777" y1="147.7419" x2="384.0664" y2="147.7419">
		<stop  offset="0" style="stop-color:#b3a075"/>
		<stop  offset="0.5" style="stop-color:#b3a075"/>
		<stop  offset="0.6477" style="stop-color:#b3a075"/>
		<stop  offset="0.8576" style="stop-color:#b3a075"/>
		<stop  offset="1" style="stop-color:#b3a075"/>
	</linearGradient>
	<path style="fill:url(#SVGID_00000008118319666144998230000017897954856367857059_);" d="M301.8,162v-0.4h0.8
		c0.6,0,1.2-0.1,1.6-0.3c0.4-0.2,0.8-0.5,1-0.9c0.2-0.4,0.3-1,0.3-1.6v-22.3c0-0.6-0.1-1.2-0.3-1.6c-0.2-0.4-0.6-0.7-1-0.9
		c-0.4-0.2-1-0.3-1.6-0.3h-0.8v-0.4h12.2v0.4h-0.8c-0.6,0-1.1,0.1-1.6,0.3c-0.5,0.2-0.8,0.5-1,0.9c-0.2,0.4-0.3,1-0.3,1.6v22.2
		c0,0.7,0.1,1.2,0.3,1.6c0.2,0.4,0.5,0.7,1,0.9c0.5,0.2,1,0.3,1.6,0.3h0.8v0.4H301.8z"/>
	
		<linearGradient id="SVGID_00000034770302822306045040000009320354097823025293_" gradientUnits="userSpaceOnUse" x1="191.4777" y1="141.542" x2="384.0664" y2="141.542">
		<stop  offset="0" style="stop-color:#b3a075"/>
		<stop  offset="0.5" style="stop-color:#b3a075"/>
		<stop  offset="0.6477" style="stop-color:#b3a075"/>
		<stop  offset="0.8576" style="stop-color:#b3a075"/>
		<stop  offset="1" style="stop-color:#b3a075"/>
	</linearGradient>
	<path style="fill:url(#SVGID_00000034770302822306045040000009320354097823025293_);" d="M316.9,162v-0.4h0.8
		c0.6,0,1.2-0.1,1.6-0.3c0.4-0.2,0.8-0.5,1-0.9c0.2-0.4,0.3-0.9,0.3-1.6v-22.3c0-0.6-0.1-1.2-0.3-1.6c-0.2-0.4-0.6-0.7-1-0.9
		c-0.4-0.2-1-0.3-1.6-0.3h-0.8v-0.4h20.7l0.2,7.1h-0.4l-0.1-1.3c-0.1-1.3-0.4-2.4-0.7-3.2c-0.4-0.8-1-1.3-1.8-1.7
		c-0.8-0.3-1.9-0.5-3.3-0.5h-6.1v13h9.9v0.4h-9.9v14.4h7.2c1.4,0,2.6-0.2,3.5-0.5c0.9-0.3,1.5-0.9,1.9-1.7c0.4-0.8,0.7-1.8,0.8-3.2
		l0.1-1.3h0.4l-0.3,7.1H316.9z M322,130.8c0.5-0.5,1-1.1,1.6-1.7c0.6-0.6,1.1-1.2,1.6-1.8c0.5-0.6,1-1.2,1.3-1.7h3.3
		c0.4,0.5,0.8,1.1,1.3,1.7c0.5,0.6,1.1,1.2,1.6,1.8s1.1,1.2,1.6,1.7v0.4H334c-0.5-0.3-1.2-0.6-1.9-1c-0.7-0.4-1.4-0.8-2.1-1.3
		c-0.7-0.4-1.3-0.9-1.8-1.3c-0.5,0.4-1.1,0.8-1.8,1.3c-0.7,0.4-1.4,0.9-2.1,1.3c-0.7,0.4-1.3,0.7-1.9,1H322V130.8z M333,125.4
		c0.7,0,1.2-0.1,1.5-0.4c0.3-0.3,0.5-0.8,0.5-1.6c0-0.7-0.1-1.2-0.3-1.5c-0.2-0.3-0.5-0.4-1-0.4c-0.6,0-1,0.2-1.2,0.6
		c-0.2,0.4-0.3,0.9-0.3,1.5c-0.3,0-0.6-0.1-0.9-0.3c-0.2-0.2-0.3-0.4-0.3-0.7c0-0.5,0.3-0.8,0.8-1.1c0.5-0.3,1.2-0.4,2.1-0.4
		c1,0,1.8,0.2,2.4,0.6c0.6,0.4,0.9,1,0.9,1.7c0,0.6-0.2,1.1-0.6,1.5c-0.4,0.4-1.1,0.7-2.1,0.8l-0.6,1.5h-0.4L333,125.4z"/>
	
		<linearGradient id="SVGID_00000109014591260474267570000001820323078248329872_" gradientUnits="userSpaceOnUse" x1="191.4777" y1="147.7419" x2="384.0664" y2="147.7419">
		<stop  offset="0" style="stop-color:#b3a075"/>
		<stop  offset="0.5" style="stop-color:#b3a075"/>
		<stop  offset="0.6477" style="stop-color:#b3a075"/>
		<stop  offset="0.8576" style="stop-color:#b3a075"/>
		<stop  offset="1" style="stop-color:#b3a075"/>
	</linearGradient>
	<path style="fill:url(#SVGID_00000109014591260474267570000001820323078248329872_);" d="M342.1,162v-0.4h2c0.6,0,1.1-0.1,1.6-0.3
		c0.4-0.2,0.8-0.5,1-0.9c0.2-0.4,0.3-0.9,0.3-1.6v-22.4c0-0.6-0.1-1.2-0.3-1.5c-0.2-0.4-0.6-0.7-1-0.8c-0.4-0.2-1-0.3-1.6-0.3h-2
		v-0.4h8.9l9.6,23.4l8.3-23.4h8v0.4h-0.8c-0.6,0-1.2,0.1-1.6,0.3c-0.4,0.2-0.8,0.5-1,0.9c-0.2,0.4-0.3,1-0.3,1.6v22.2
		c0,0.7,0.1,1.2,0.3,1.6c0.2,0.4,0.6,0.7,1,0.9c0.4,0.2,1,0.3,1.6,0.3h0.8v0.4h-11.2v-0.4h0.2c0.6,0,1-0.1,1.5-0.3
		c0.4-0.2,0.7-0.5,1-0.9s0.3-0.9,0.3-1.6v-23.5l-9.4,26.6h-1.2l-10.7-26.2v23c0,0.7,0.1,1.2,0.4,1.6c0.2,0.4,0.6,0.7,1.1,0.9
		c0.5,0.2,1.1,0.3,1.8,0.3h1v0.4H342.1z"/>
</g>
</svg>
